<svg xmlns="http://www.w3.org/2000/svg" xmlns:xlink="http://www.w3.org/1999/xlink" width="2000" zoomAndPan="magnify" viewBox="0 0 1500 1499.999933" height="2000" preserveAspectRatio="xMidYMid meet" version="1.0"><defs><g/><clipPath id="3a189e0534"><rect x="0" width="1478" y="0" height="898"/></clipPath></defs><rect x="-150" width="1800" fill="#ffffff" y="-149.999993" height="1799.99992" fill-opacity="1"/><rect x="-150" width="1800" fill="#ffffff" y="-149.999993" height="1799.99992" fill-opacity="1"/><g transform="matrix(1, 0, 0, 1, 22, 301)"><g clip-path="url(#3a189e0534)"><g fill="#001c42" fill-opacity="1"><g transform="translate(5.745116, 643.918109)"><g><path d="M 146.265625 4.546875 C 108.703125 4.546875 81.859375 -0.757812 65.734375 -11.375 C 49.609375 -22 39.269531 -40.304688 34.71875 -66.296875 C 30.164062 -92.285156 27.890625 -135.445312 27.890625 -195.78125 C 27.890625 -256.101562 30.164062 -299.257812 34.71875 -325.25 C 39.269531 -351.238281 49.609375 -369.539062 65.734375 -380.15625 C 81.859375 -390.78125 108.703125 -396.09375 146.265625 -396.09375 C 183.828125 -396.09375 210.671875 -390.78125 226.796875 -380.15625 C 242.921875 -369.539062 253.257812 -351.238281 257.8125 -325.25 C 262.363281 -299.257812 264.640625 -256.101562 264.640625 -195.78125 C 264.640625 -135.445312 262.363281 -92.285156 257.8125 -66.296875 C 253.257812 -40.304688 242.921875 -22 226.796875 -11.375 C 210.671875 -0.757812 183.828125 4.546875 146.265625 4.546875 Z M 146.265625 -42.109375 C 167.890625 -42.109375 182.78125 -44.765625 190.9375 -50.078125 C 199.09375 -55.390625 204.5 -68.003906 207.15625 -87.921875 C 209.8125 -107.847656 211.140625 -143.800781 211.140625 -195.78125 C 211.140625 -247.75 209.8125 -283.691406 207.15625 -303.609375 C 204.5 -323.535156 199.09375 -336.15625 190.9375 -341.46875 C 182.78125 -346.78125 167.890625 -349.4375 146.265625 -349.4375 C 124.640625 -349.4375 109.84375 -346.78125 101.875 -341.46875 C 93.90625 -336.15625 88.59375 -323.632812 85.9375 -303.90625 C 83.28125 -284.175781 81.953125 -248.132812 81.953125 -195.78125 C 81.953125 -143.414062 83.28125 -107.367188 85.9375 -87.640625 C 88.59375 -67.910156 93.90625 -55.390625 101.875 -50.078125 C 109.84375 -44.765625 124.640625 -42.109375 146.265625 -42.109375 Z M 146.265625 -42.109375 "/></g></g></g><g fill="#001c42" fill-opacity="1"><g transform="translate(392.733804, 643.918109)"><g><path d="M 210 0 L 140 -153.65625 L 136.015625 -153.65625 L 66.015625 0 L 8.53125 0 L 104.140625 -196.90625 L 9.671875 -391.546875 L 68.859375 -391.546875 L 138.296875 -241.296875 L 141.703125 -241.296875 L 211.140625 -391.546875 L 268.046875 -391.546875 L 174.71875 -198.046875 L 269.765625 0 Z M 210 0 "/></g></g></g><g fill="#001c42" fill-opacity="1"><g transform="translate(764.356995, 643.918109)"><g><path d="M 146.265625 4.546875 C 108.703125 4.546875 81.859375 -0.757812 65.734375 -11.375 C 49.609375 -22 39.269531 -40.304688 34.71875 -66.296875 C 30.164062 -92.285156 27.890625 -135.445312 27.890625 -195.78125 C 27.890625 -256.101562 30.164062 -299.257812 34.71875 -325.25 C 39.269531 -351.238281 49.609375 -369.539062 65.734375 -380.15625 C 81.859375 -390.78125 108.703125 -396.09375 146.265625 -396.09375 C 183.828125 -396.09375 210.671875 -390.78125 226.796875 -380.15625 C 242.921875 -369.539062 253.257812 -351.238281 257.8125 -325.25 C 262.363281 -299.257812 264.640625 -256.101562 264.640625 -195.78125 C 264.640625 -135.445312 262.363281 -92.285156 257.8125 -66.296875 C 253.257812 -40.304688 242.921875 -22 226.796875 -11.375 C 210.671875 -0.757812 183.828125 4.546875 146.265625 4.546875 Z M 146.265625 -42.109375 C 167.890625 -42.109375 182.78125 -44.765625 190.9375 -50.078125 C 199.09375 -55.390625 204.5 -68.003906 207.15625 -87.921875 C 209.8125 -107.847656 211.140625 -143.800781 211.140625 -195.78125 C 211.140625 -247.75 209.8125 -283.691406 207.15625 -303.609375 C 204.5 -323.535156 199.09375 -336.15625 190.9375 -341.46875 C 182.78125 -346.78125 167.890625 -349.4375 146.265625 -349.4375 C 124.640625 -349.4375 109.84375 -346.78125 101.875 -341.46875 C 93.90625 -336.15625 88.59375 -323.632812 85.9375 -303.90625 C 83.28125 -284.175781 81.953125 -248.132812 81.953125 -195.78125 C 81.953125 -143.414062 83.28125 -107.367188 85.9375 -87.640625 C 88.59375 -67.910156 93.90625 -55.390625 101.875 -50.078125 C 109.84375 -44.765625 124.640625 -42.109375 146.265625 -42.109375 Z M 146.265625 -42.109375 "/></g></g></g><g fill="#001c42" fill-opacity="1"><g transform="translate(1151.345682, 643.918109)"><g><path d="M 210.578125 0 L 90.484375 -277.15625 L 88.21875 -277.15625 L 88.21875 0 L 36.421875 0 L 36.421875 -391.546875 L 92.203125 -391.546875 L 208.296875 -123.5 L 210.578125 -123.5 L 210.578125 -391.546875 L 262.359375 -391.546875 L 262.359375 0 Z M 210.578125 0 "/></g></g></g></g></g></svg>